<?xml version="1.0" standalone="no"?>
<!DOCTYPE svg PUBLIC "-//W3C//DTD SVG 20010904//EN"
 "http://www.w3.org/TR/2001/REC-SVG-20010904/DTD/svg10.dtd">
<svg version="1.0" xmlns="http://www.w3.org/2000/svg"
 width="1000.000000pt" height="1000.000000pt" viewBox="0 0 1000.000000 1000.000000"
 preserveAspectRatio="xMidYMid meet">

<g transform="translate(0.000000,1000.000000) scale(0.100000,-0.100000)"
fill="#000000" stroke="none">
<path d="M0 5000 l0 -5000 915 0 915 0 0 738 0 737 310 123 310 124 0 154 c0
85 -3 154 -7 154 -5 0 -143 -54 -308 -119 l-300 -118 -3 145 c-1 80 1 149 5
152 5 4 144 61 310 126 l303 119 0 158 c0 157 0 158 -21 152 -12 -4 -148 -58
-302 -121 -154 -63 -284 -114 -289 -114 -4 0 -8 66 -8 148 l0 147 310 125 310
124 0 158 0 158 -47 -19 c-27 -10 -162 -64 -301 -120 -139 -56 -257 -101 -262
-101 -7 0 -10 52 -8 147 l3 147 305 122 305 122 3 156 c1 86 0 156 -3 156 -3
0 -140 -54 -305 -120 -165 -66 -302 -120 -305 -120 -3 0 -5 67 -5 149 l0 148
468 188 c257 103 473 190 480 192 9 4 12 -431 12 -2156 l0 -2161 710 0 710 0
0 2068 0 2067 -565 260 -565 260 0 1206 0 1206 775 355 775 356 0 -3889 0
-3889 660 0 660 0 0 3163 c0 1740 2 3166 5 3169 3 3 258 -112 565 -255 l560
-261 0 -138 0 -138 -32 14 c-18 7 -136 61 -261 120 -126 58 -231 106 -233 106
-3 0 -3 -72 -2 -161 l3 -160 230 -108 c127 -59 245 -115 263 -125 l32 -17 0
-134 c0 -74 -2 -135 -4 -135 -3 0 -120 54 -261 120 -141 66 -259 120 -261 120
-2 0 -4 -72 -4 -161 l0 -160 112 -52 c62 -29 180 -84 263 -122 l150 -71 3
-137 c1 -75 -1 -137 -5 -137 -5 0 -123 54 -263 120 l-255 119 -3 -156 c-1 -86
1 -160 5 -164 5 -4 123 -61 263 -127 l255 -119 0 -423 0 -424 -412 -165 -413
-165 0 -1418 0 -1418 560 0 560 0 0 1485 0 1485 26 10 c22 9 74 -12 400 -162
l374 -171 0 -154 c0 -91 -4 -153 -10 -153 -5 0 -112 47 -238 105 -126 58 -232
105 -236 105 -3 0 -6 -71 -6 -158 l0 -159 243 -111 242 -111 3 -156 c1 -94 -1
-155 -7 -155 -5 0 -116 49 -245 109 l-236 109 0 -161 0 -162 243 -112 242
-111 3 -157 c2 -151 2 -156 -17 -150 -11 3 -121 53 -245 110 l-226 104 0 -162
0 -162 243 -111 242 -110 3 -367 2 -367 915 0 915 0 0 5000 0 5000 -5000 0
-5000 0 0 -5000z m9710 0 l0 -4710 -625 0 -625 0 0 1273 0 1273 -507 234
c-280 128 -515 234 -523 234 -8 0 -25 -4 -37 -8 l-23 -7 0 1358 0 1358 -833
387 c-457 214 -845 393 -862 399 -29 11 -45 2 -380 -206 -192 -120 -356 -220
-362 -222 -10 -4 -13 189 -15 929 l-3 933 -1060 -485 -1060 -486 -5 -1309 -5
-1310 -622 -250 -623 -249 0 -1923 0 -1923 -625 0 -625 0 0 4710 0 4710 4710
0 4710 0 0 -4710z"/>
<path d="M4178 7247 l-158 -72 0 -1315 0 -1315 158 -72 157 -72 3 729 c1 402
1 1058 0 1460 l-3 729 -157 -72z"/>
<path d="M3523 6947 l-153 -71 0 -1016 0 -1016 151 -70 c84 -38 156 -70 160
-72 5 -2 9 507 9 1157 0 639 -3 1161 -7 1160 -5 0 -77 -33 -160 -72z"/>
</g>
</svg>
